<?xml version="1.0" encoding="utf-8"?>
<svg viewBox="0 0 80 80" xmlns="http://www.w3.org/2000/svg">
  <defs>
    <style>.cls-1{fill:none;stroke:#000;stroke-linecap:round;stroke-linejoin:round;stroke-width:4px;}</style>
  </defs>
  <path class="cls-1" d="M70.738,36.026A31,31,0,0,0,43.974,9.262" style="stroke: rgb(212, 233, 234);"/>
  <path class="cls-1" d="M70.738,43.974A31,31,0,0,1,43.974,70.738" style="stroke: rgb(229, 237, 237);"/>
  <path class="cls-1" d="M70.738,43.974c.088.006.172.026.262.026a4,4,0,0,0,0-8c-.09,0-.174.021-.262.026a3.981,3.981,0,0,0,0,7.947Z" style="stroke: rgb(91, 210, 218); fill-rule: nonzero;"/>
  <path class="cls-1" d="M9.262,36.026A31,31,0,0,1,36.026,9.262" style="stroke: rgb(233, 240, 241);"/>
  <path class="cls-1" d="M43.974,9.262C43.979,9.174,44,9.09,44,9a4,4,0,0,0-8,0c0,.09.021.174.026.262a3.981,3.981,0,0,0,7.947,0Z" style="stroke: rgb(58, 157, 164);"/>
  <path class="cls-1" d="M36.026,70.738A31,31,0,0,1,9.262,43.974" style="stroke: rgb(230, 241, 242);"/>
  <path class="cls-1" d="M9.262,43.974a3.981,3.981,0,0,0,0-7.947C9.174,36.021,9.09,36,9,36a4,4,0,0,0,0,8C9.09,44,9.174,43.979,9.262,43.974Z" style="stroke: rgb(64, 162, 169);"/>
  <path class="cls-1" d="M43.974,70.738c.006.088.026.172.026.262a4,4,0,0,1-8,0c0-.09.021-.174.026-.262a3.981,3.981,0,0,1,7.947,0Z" style="stroke: rgb(75, 186, 193);"/>
  <circle class="cls-1" cx="40" cy="40" r="20" style="fill-rule: nonzero; stroke: rgb(213, 230, 235);"/>
  <polygon style="fill: rgb(58, 157, 164);" points="39.589 24.272 30.604 32.438 30.604 34.296 39.589 26.131 48.578 34.296 48.578 32.438"/>
  <path style="stroke: rgb(213, 226, 224); fill: rgb(232, 235, 238);" d="M 45.48 41.998 C 46.735 39.287 45.103 36.024 45.034 35.886 L 44.323 34.49 L 43.765 35.94 C 43.289 37.175 42.536 37.741 41.924 37.999 C 42.923 34.682 40.956 31.205 40.864 31.043 L 39.57 28.8 L 39.57 31.322 C 39.57 33.071 38.559 33.871 37.387 34.797 C 36.21 35.728 34.876 36.782 34.574 38.865 C 34.265 41.002 35.108 42.569 36.111 43.579 L 34.749 43.579 L 34.749 44.802 L 42.056 44.802 C 42.056 44.802 42.056 44.802 42.057 44.802 L 45.713 44.802 L 45.713 43.579 L 44.276 43.579 C 44.794 43.131 45.2 42.605 45.48 41.998 Z"/>
  <rect x="32.628" y="45.86" style="fill: rgb(58, 157, 164);" width="14.727" height="1.733"/>
</svg>