<?xml version="1.0" encoding="iso-8859-1"?>
<!-- Generator: Adobe Illustrator 19.0.0, SVG Export Plug-In . SVG Version: 6.00 Build 0)  -->
<svg version="1.1" id="Layer_1" xmlns="http://www.w3.org/2000/svg" xmlns:xlink="http://www.w3.org/1999/xlink" x="0px" y="0px"
	 viewBox="0 0 512 512" style="enable-background:new 0 0 512 512;" xml:space="preserve">
<polygon style="fill:#2C3E50;" points="256,0 20.016,168.784 20.016,207.168 256,38.4 491.984,207.168 491.984,168.784 "/>
<path style="fill:#E04F5F;" d="M378.864,438.576c29.376-70.976-8.816-156.464-10.464-160.08l-16.64-36.56l-13.04,37.984
	c-11.12,32.352-28.752,47.168-43.12,53.936c23.376-86.864-22.64-177.936-24.816-182.192l-30.24-58.736v66.048
	c0,45.808-23.696,66.752-51.136,91.024c-27.536,24.352-58.768,51.968-65.824,106.528C116.352,412.48,136.08,453.552,159.552,480
	h-31.888v32H298.72l0,0c0,0,0,0,0.016,0h85.584v-32h-33.648C362.784,468.24,372.288,454.48,378.864,438.576z"/>
<rect x="127.664" y="480" style="fill:#1A1718;" width="256.64" height="32"/>
<g>
</g>
<g>
</g>
<g>
</g>
<g>
</g>
<g>
</g>
<g>
</g>
<g>
</g>
<g>
</g>
<g>
</g>
<g>
</g>
<g>
</g>
<g>
</g>
<g>
</g>
<g>
</g>
<g>
</g>
</svg>
